<?xml version="1.0" encoding="UTF-8" standalone="no"?>
<svg
   xmlns:dc="http://purl.org/dc/elements/1.1/"
   xmlns:cc="http://creativecommons.org/ns#"
   xmlns:rdf="http://www.w3.org/1999/02/22-rdf-syntax-ns#"
   xmlns:svg="http://www.w3.org/2000/svg"
   xmlns="http://www.w3.org/2000/svg"
   xmlns:sodipodi="http://sodipodi.sourceforge.net/DTD/sodipodi-0.dtd"
   xmlns:inkscape="http://www.inkscape.org/namespaces/inkscape"
   aria-hidden="true"
   focusable="false"
   data-prefix="fas"
   data-icon="utensils"
   class="svg-inline--fa fa-utensils fa-w-13"
   role="img"
   viewBox="0 0 416 512"
   version="1.1"
   id="svg4"
   sodipodi:docname="fork-solid-clr.svg"
   inkscape:version="1.0.2-2 (e86c870879, 2021-01-15)">
  <metadata
     id="metadata10">
    <rdf:RDF>
      <cc:Work
         rdf:about="">
        <dc:format>image/svg+xml</dc:format>
        <dc:type
           rdf:resource="http://purl.org/dc/dcmitype/StillImage" />
      </cc:Work>
    </rdf:RDF>
  </metadata>
  <defs
     id="defs8" />
  <sodipodi:namedview
     pagecolor="#ffffff"
     bordercolor="#666666"
     borderopacity="1"
     objecttolerance="10"
     gridtolerance="10"
     guidetolerance="10"
     inkscape:pageopacity="0"
     inkscape:pageshadow="2"
     inkscape:window-width="2400"
     inkscape:window-height="1284"
     id="namedview6"
     showgrid="false"
     inkscape:zoom="1.6445312"
     inkscape:cx="187.02138"
     inkscape:cy="217.69121"
     inkscape:window-x="2391"
     inkscape:window-y="-9"
     inkscape:window-maximized="1"
     inkscape:current-layer="svg4"
     inkscape:document-rotation="0"
     inkscape:lockguides="true" />
  <path
     fill="currentColor"
     d="m 308.27553,27.189456 c 0.8,4.561726 16.1,91.719814 16.1,125.010704 0,50.76134 -27.8,86.96398 -68.9,101.52268 l 12.9,231.09511 c 0.7,13.29695 -10.2,24.55568 -24,24.55568 h -64 c -13.7,0 -24.7,-11.16167 -24,-24.55568 l 12.9,-231.09511 c -41.2,-14.5587 -68.9,-50.8584 -68.9,-101.52268 0,-33.38795 15.3,-120.448978 16.1,-125.010704 3.2,-19.7027755 45.3,-19.9939495 47.9,1.067638 V 165.303 c 1.3,3.29997 15.1,3.10585 16,0 1.4,-24.55568 7.9,-135.104746 8,-137.628254 3.3,-20.1880655 44.7,-20.1880655 47.9,0 0.2,2.620566 6.6,113.072574 8,137.628254 0.9,3.10585 14.8,3.29997 16,0 V 28.257094 c 2.6,-20.9645295 44.8,-20.7704135 48,-1.067638 z"
     id="path2"
     sodipodi:nodetypes="csccssccscccccccccc"
     style="stroke-width:0.98518" />
  <path
     style="fill:#000000;fill-opacity:1;stroke:#ffffff;stroke-width:7.8585;stroke-miterlimit:4;stroke-dasharray:none;stroke-opacity:1"
     d="m 177.47096,505.74533 c -7.42838,-1.0464 -14.71893,-6.41277 -18.08049,-13.30855 -1.36452,-2.79908 -1.66484,-4.31875 -1.82085,-9.21392 -0.14755,-4.62939 11.11256,-211.89582 12.34048,-227.15295 l 0.30665,-3.8103 -5.0112,-1.97361 c -21.8973,-8.62402 -40.56341,-25.05439 -51.31585,-45.16942 -11.27512,-21.09287 -14.759927,-43.35921 -11.70456,-74.78679 2.06393,-21.22959 7.43894,-59.104314 12.74797,-89.827889 3.0105,-17.421896 3.73734,-19.232781 9.15517,-22.809605 5.96696,-3.939328 16.6075,-5.543443 24.50972,-3.694955 4.50451,1.053704 9.87692,3.964445 12.26681,6.6461 4.09111,4.59054 3.90706,0.981342 3.90706,76.609657 0,64.600342 0.0596,68.440932 1.06807,68.855702 3.65431,1.50295 12.86004,1.21502 14.60054,-0.45667 0.58111,-0.5581 1.82444,-18.46447 4.79365,-69.037453 2.20498,-37.556137 4.26987,-69.232446 4.58861,-70.391796 0.84223,-3.063188 3.8727,-6.777011 7.16938,-8.786035 10.76551,-6.560592 28.50297,-4.988269 35.97855,3.189296 3.7354,4.086162 3.49785,1.785041 7.8153,75.703976 2.90464,49.730532 4.21608,68.790342 4.77034,69.330572 1.70453,1.66129 10.9372,1.94749 14.57065,0.4517 0.99446,-0.40941 1.06818,-4.63549 1.22067,-69.987959 l 0.1623,-69.552243 1.81837,-3.153333 c 3.64902,-6.327967 10.22828,-9.493255 20.58756,-9.904686 5.40278,-0.214577 7.2563,-0.04929 10.68087,0.952468 6.89107,2.015786 11.75693,5.681314 13.548,10.205936 1.80162,4.551199 11.10895,64.513979 14.35971,92.512857 2.4445,21.05445 3.08853,33.57074 2.25,43.72649 -2.35431,28.51401 -12.08939,49.9461 -30.85265,67.92319 -10.41441,9.97804 -21.37354,17.08094 -33.45993,21.68629 l -4.11976,1.56978 0.002,3.01523 c 9.9e-4,1.65836 2.87051,53.92677 6.37687,116.15203 4.78558,84.92656 6.2292,113.86764 5.78966,116.06781 -1.93345,9.67779 -10.07509,17.00026 -20.51384,18.44979 -5.02027,0.69711 -65.52579,0.67077 -70.50549,-0.0308 z"
     id="path835" />
  <path
     style="fill:none;fill-rule:evenodd;stroke:#000000;stroke-width:0.964293px;stroke-linecap:butt;stroke-linejoin:miter;stroke-opacity:1"
     d="m 167.82898,337.12129 v 0"
     id="path909"
     inkscape:connector-type="polyline"
     inkscape:connector-curvature="0" />
  <path
     style="fill:#9356dc;fill-opacity:1;stroke:#000000;stroke-width:9.78188;stroke-miterlimit:4;stroke-dasharray:none;stroke-opacity:1"
     d="m 175.51374,506.93748 c -8.09059,-0.99347 -16.03108,-6.08839 -19.69231,-12.63535 -1.48619,-2.65748 -1.81326,-4.1003 -1.9832,-8.74786 -0.16068,-4.39519 0,0 10.11689,-177.24491 l 100.39822,-0.15763 c 5.78429,80.60166 10.77299,179.20951 10.29425,181.2984 -2.1058,9.18824 -10.97326,16.14033 -22.34259,17.51652 -5.46781,0.66186 -71.36725,0.63684 -76.79087,-0.0293 z"
     id="path835-1"
     sodipodi:nodetypes="cssccsscc" />
  <path
     style="fill:#000000;fill-opacity:0;stroke:none;stroke-width:9.101;stroke-miterlimit:4;stroke-dasharray:none"
     d="m 167.48707,305.53457 c 0.006,-1.29784 0.53694,-11.56273 1.17965,-22.81083 0.64273,-11.2481 0.98003,-20.60689 0.74957,-20.79729 -0.23045,-0.19041 -2.06201,-1.00756 -4.07013,-1.81589 -12.31563,-4.95746 -24.70509,-13.36671 -34.36226,-23.32312 -7.9626,-8.20934 -13.4784,-16.16202 -18.54886,-26.74373 -4.50231,-9.39601 -7.02584,-16.9632 -9.23341,-27.68765 -2.13583,-10.37598 -2.64846,-30.78968 -1.17723,-46.88019 2.83193,-30.9726 13.59054,-105.166426 16.10621,-111.072243 1.49971,-3.52072 4.58508,-6.502666 8.87726,-8.57969 11.01179,-5.32869 25.46902,-3.495792 32.88082,4.168653 4.83563,5.000473 4.54469,-0.118691 4.54469,79.964876 0,65.539984 0.0805,71.301384 1.00796,72.096004 1.49783,1.28337 13.22023,1.20929 14.47732,-0.0914 0.91947,-0.95142 1.35648,-7.84976 7.972,-125.841666 0.53363,-9.517625 1.23203,-18.354748 1.552,-19.638052 2.29413,-9.201217 16.37497,-15.588847 28.93443,-13.125806 8.53851,1.674494 15.50044,6.711155 17.12223,12.387196 0.42909,1.501832 2.40119,32.1943 4.69015,72.994673 2.17235,38.721745 4.08736,71.012015 4.25558,71.756155 0.18175,0.80403 1.08487,1.63379 2.22589,2.04511 2.59976,0.93718 10.20513,0.86026 12.08329,-0.12221 l 1.5213,-0.79579 0.30427,-72.346919 0.30426,-72.346922 1.34567,-2.601663 c 1.80848,-3.496455 4.57654,-6.256624 8.15508,-8.13182 12.58232,-6.5932835 31.22965,-2.838862 36.2744,7.303425 3.26272,6.559584 14.76884,87.259469 17.2667,121.102509 2.74621,37.20798 -7.22097,68.65219 -28.94782,91.32381 -10.1784,10.621 -19.87729,17.49155 -32.81311,23.24433 -5.5028,2.44718 -6.17101,2.91938 -6.35757,4.49262 -0.20924,1.76432 1.48724,36.5462 2.02703,41.55898 l 0.28798,2.67438 H 212.79921 167.476 l 0.0111,-2.35976 z"
     id="path948" />
</svg>
