<?xml version="1.0" encoding="UTF-8" standalone="no"?>
<svg
   xmlns:dc="http://purl.org/dc/elements/1.1/"
   xmlns:cc="http://creativecommons.org/ns#"
   xmlns:rdf="http://www.w3.org/1999/02/22-rdf-syntax-ns#"
   xmlns:svg="http://www.w3.org/2000/svg"
   xmlns="http://www.w3.org/2000/svg"
   xmlns:sodipodi="http://sodipodi.sourceforge.net/DTD/sodipodi-0.dtd"
   xmlns:inkscape="http://www.inkscape.org/namespaces/inkscape"
   aria-hidden="true"
   focusable="false"
   data-prefix="fas"
   data-icon="hands-helping"
   class="svg-inline--fa fa-hands-helping fa-w-20"
   role="img"
   viewBox="0 0 640 512"
   version="1.1"
   id="svg859"
   sodipodi:docname="hands-helping-solid.svg"
   inkscape:version="1.0.2-2 (e86c870879, 2021-01-15)">
  <metadata
     id="metadata865">
    <rdf:RDF>
      <cc:Work
         rdf:about="">
        <dc:format>image/svg+xml</dc:format>
        <dc:type
           rdf:resource="http://purl.org/dc/dcmitype/StillImage" />
      </cc:Work>
    </rdf:RDF>
  </metadata>
  <defs
     id="defs863" />
  <sodipodi:namedview
     pagecolor="#ffffff"
     bordercolor="#666666"
     borderopacity="1"
     objecttolerance="10"
     gridtolerance="10"
     guidetolerance="10"
     inkscape:pageopacity="0"
     inkscape:pageshadow="2"
     inkscape:window-width="2400"
     inkscape:window-height="1284"
     id="namedview861"
     showgrid="false"
     inkscape:zoom="2.109375"
     inkscape:cx="320"
     inkscape:cy="256"
     inkscape:window-x="2391"
     inkscape:window-y="-9"
     inkscape:window-maximized="1"
     inkscape:current-layer="svg859" />
  <path
     fill="currentColor"
     d="M488 192H336v56c0 39.7-32.3 72-72 72s-72-32.3-72-72V126.4l-64.9 39C107.8 176.9 96 197.8 96 220.2v47.3l-80 46.2C.7 322.5-4.6 342.1 4.3 357.4l80 138.6c8.8 15.3 28.4 20.5 43.7 11.7L231.4 448H368c35.3 0 64-28.7 64-64h16c17.7 0 32-14.3 32-32v-64h8c13.3 0 24-10.7 24-24v-48c0-13.3-10.7-24-24-24zm147.7-37.4L555.7 16C546.9.7 527.3-4.5 512 4.3L408.6 64H306.4c-12 0-23.7 3.4-33.9 9.7L239 94.6c-9.4 5.8-15 16.1-15 27.1V248c0 22.1 17.9 40 40 40s40-17.9 40-40v-88h184c30.9 0 56 25.1 56 56v28.5l80-46.2c15.3-8.9 20.5-28.4 11.7-43.7z"
     id="path857" />
  <path
     style="fill:#ffffff;fill-opacity:1;stroke-width:0.30686"
     d="m 257.49993,287.23149 c -8.41368,-1.39899 -16.801,-5.99556 -22.68253,-12.43089 -4.46449,-4.88486 -7.13745,-9.6609 -9.27633,-16.57488 l -1.05518,-3.41091 -0.13931,-67.79259 c -0.15619,-76.01115 -0.32846,-71.84777 3.28342,-79.35577 1.5165,-3.15235 2.71593,-4.78183 5.77889,-7.850907 3.46593,-3.472863 5.80484,-5.07787 22.64314,-15.538115 20.82738,-12.938349 23.48811,-14.40008 30.44983,-16.728253 10.05695,-3.3633 6.89261,-3.20404 67.83363,-3.414073 l 54.9577,-0.189417 52.63484,-30.39456 c 33.11848,-19.124633 53.87355,-30.8330343 55.97562,-31.5771093 4.45037,-1.57531096 12.78841,-1.97977663 17.33821,-0.841051 7.67987,1.9221207 15.32654,7.3505401 19.33315,13.7247333 1.00951,1.606044 19.93469,34.28008 42.05595,72.608969 25.30081,43.838013 40.65765,70.919883 41.39903,73.007403 0.9102,2.56292 1.22712,4.56264 1.39188,8.7826 0.25595,6.55559 -0.41024,9.72684 -3.2839,15.63222 -1.60405,3.29633 -2.70356,4.75552 -6.04202,8.01855 -4.04038,3.9491 -4.48591,4.22241 -44.61447,27.36931 -22.29333,12.85921 -40.69333,23.38419 -40.88889,23.38885 -0.19555,0.005 -0.35681,-7.08486 -0.35835,-15.75449 -0.002,-11.25735 -0.19694,-17.05085 -0.68202,-20.26864 -3.68582,-24.44991 -22.74478,-43.50887 -47.19469,-47.19469 -3.79488,-0.57207 -19.32978,-0.67967 -98.47347,-0.68202 l -93.9678,-0.003 -0.14538,47.05185 c -0.145,46.93247 -0.14804,47.06148 -1.19788,50.84445 -1.44572,5.2095 -4.75162,11.70431 -7.88277,15.48658 -8.93481,10.7928 -23.59673,16.34593 -37.1903,14.08565 z"
     id="path867" />
  <path
     style="fill:#ffffff;fill-opacity:1;stroke-width:0.30686"
     d="M 104.2963,510.80814 C 97.618138,508.99134 89.86478,503.7026 86.326035,498.55023 85.586532,497.47353 66.568718,464.69926 44.064219,425.71852 18.597465,381.60676 2.727626,353.64187 2.0364647,351.6597 -0.66972336,343.89864 -0.18433849,335.062 3.338924,327.94785 c 4.1450393,-8.36964 6.86451,-10.59463 27.475891,-22.48 9.256296,-5.33756 27.749366,-16.00843 41.095713,-23.71303 l 24.266084,-14.00838 0.186595,-28.03618 c 0.176465,-26.51364 0.241034,-28.26789 1.188968,-32.30285 2.026539,-8.62614 4.961945,-15.60023 9.398655,-22.32977 3.22465,-4.89111 11.84697,-13.82249 16.07139,-16.64745 3.0727,-2.05478 67.41317,-40.86417 68.37397,-41.24234 0.457,-0.17988 0.61191,13.9021 0.72415,65.8324 l 0.14279,66.06123 1.24823,4.97778 c 3.59256,14.32667 9.47347,24.81379 19.55047,34.86331 10.21485,10.18701 20.97763,16.20341 34.87891,19.49733 6.13012,1.45254 19.10586,2.02924 25.75143,1.14451 26.83355,-3.57237 49.46683,-22.14226 58.57954,-48.06266 0.80676,-2.29479 1.93566,-6.24145 2.50866,-8.77037 1.00879,-4.45226 1.04727,-5.64687 1.2138,-37.67691 l 0.17199,-33.07887 77.84285,0.13072 77.84284,0.13072 3.08148,1.04966 c 7.68479,2.61771 13.22809,8.16167 15.74381,15.74577 0.99807,3.00893 1.0397,3.96127 1.21463,27.79461 0.10937,14.90485 -0.01,26.39157 -0.30165,29.00322 -0.72482,6.49173 -2.84179,10.87259 -7.43714,15.3901 -4.68238,4.60313 -10.28347,6.52403 -19.05668,6.53556 l -5.33334,0.007 v 33.44221 c 0,37.52596 -0.0138,37.71303 -3.3216,44.54298 -3.18298,6.57246 -8.48663,11.85396 -14.9886,14.926 -5.09716,2.40829 -7.99051,2.88818 -19.19725,3.18406 l -10.2482,0.27058 -0.54204,5.3466 c -1.58043,15.58884 -7.74925,28.71566 -18.57861,39.53394 -9.24897,9.23952 -20.6498,15.21756 -34.10147,17.88116 -3.64432,0.72161 -10.91422,0.81485 -76.02783,0.97502 l -71.99819,0.1771 -52.63648,30.39188 c -33.16612,19.14985 -53.88132,30.83401 -56.00181,31.58714 -4.2723,1.51739 -13.62165,1.92993 -17.82458,0.78651 z"
     id="path869" />
</svg>
