<?xml version="1.0" encoding="UTF-8" standalone="no"?>
<svg
   xmlns:dc="http://purl.org/dc/elements/1.1/"
   xmlns:cc="http://creativecommons.org/ns#"
   xmlns:rdf="http://www.w3.org/1999/02/22-rdf-syntax-ns#"
   xmlns:svg="http://www.w3.org/2000/svg"
   xmlns="http://www.w3.org/2000/svg"
   xmlns:sodipodi="http://sodipodi.sourceforge.net/DTD/sodipodi-0.dtd"
   xmlns:inkscape="http://www.inkscape.org/namespaces/inkscape"
   aria-hidden="true"
   focusable="false"
   data-prefix="fas"
   data-icon="utensils"
   class="svg-inline--fa fa-utensils fa-w-13"
   role="img"
   viewBox="0 0 416 512"
   version="1.1"
   id="svg4"
   sodipodi:docname="knife-solid-clr.svg"
   inkscape:version="1.0.2-2 (e86c870879, 2021-01-15)">
  <path
     style="fill:#ffffff;fill-opacity:1;stroke-width:0.389305"
     d="m 203.62602,500.87163 c -7.40482,-1.06247 -14.67728,-6.51738 -18.00577,-13.5057 -1.26933,-2.66503 -1.66155,-4.49652 -1.81133,-8.45813 -0.11099,-2.93571 2.88172,-41.9617 7.13537,-93.04763 4.0296,-48.3951 7.32655,-88.72121 7.32655,-89.61356 0,-1.33974 -1.1897,-2.59274 -6.82728,-7.19056 -36.06546,-29.41375 -57.10477,-64.34944 -62.82404,-104.31908 -1.1029,-7.7077 -1.24262,-25.21294 -0.27063,-33.90846 2.97041,-26.57378 13.76792,-54.59229 30.49045,-79.11976 12.32103,-18.071666 24.14331,-30.908546 40.34361,-43.805961 20.78199,-16.544998 44.16453,-26.6049205 62.1576,-26.7422064 6.28671,-0.047937 7.85918,0.2661584 12.33171,2.4634569 6.72917,3.3059616 11.49025,9.7639845 12.73603,17.2753985 0.87682,5.28678 0.88361,454.968572 0.007,460.387912 -1.67781,10.37181 -9.73436,18.09985 -20.4492,19.61537 -4.97901,0.70424 -57.39744,0.67809 -62.34002,-0.0311 z"
     id="path837-7" />
  <metadata
     id="metadata10">
    <rdf:RDF>
      <cc:Work
         rdf:about="">
        <dc:format>image/svg+xml</dc:format>
        <dc:type
           rdf:resource="http://purl.org/dc/dcmitype/StillImage" />
      </cc:Work>
    </rdf:RDF>
  </metadata>
  <defs
     id="defs8" />
  <sodipodi:namedview
     pagecolor="#ffffff"
     bordercolor="#666666"
     borderopacity="1"
     objecttolerance="10"
     gridtolerance="10"
     guidetolerance="10"
     inkscape:pageopacity="0"
     inkscape:pageshadow="2"
     inkscape:window-width="2400"
     inkscape:window-height="1284"
     id="namedview6"
     showgrid="false"
     inkscape:zoom="1.6445312"
     inkscape:cx="208"
     inkscape:cy="254.78385"
     inkscape:window-x="2391"
     inkscape:window-y="-9"
     inkscape:window-maximized="1"
     inkscape:current-layer="svg4"
     inkscape:document-rotation="0" />
  <path
     fill="currentColor"
     d="m 198.18788,299.45025 -15,178.11462 c -1.2,13.47166 9.9,25.0188 23.9,25.0188 h 56 c 13.3,0 24,-10.29619 24,-23.09428 V 33.000013 c 0,-12.701853 -10.7,-23.0942787 -24,-23.0942787 -82.5,0 -221.399998,171.7636957 -64.9,289.5445157 z"
     id="path2"
     sodipodi:nodetypes="ccsssssc"
     style="stroke-width:8.54173228;stroke:#ffffff;stroke-opacity:1;stroke-miterlimit:4;stroke-dasharray:none" />
  <path
     style="fill:#9356dc;fill-opacity:1;stroke:#000000;stroke-width:8.89322835;stroke-miterlimit:4;stroke-dasharray:none;stroke-opacity:1"
     d="m 203.62597,500.87167 c -7.40482,-1.0288 -14.67728,-6.31086 -18.00577,-13.07776 -1.26933,-2.58059 -1.66155,-4.35405 -1.81133,-8.19014 -0.11099,-2.84269 2.88172,-40.63212 7.13537,-90.09937 4.0296,-46.8617 7.24364,-87.9883 7.32655,-86.77413 45.09152,0.52637 42.95386,-0.0772 88.74553,-1.06994 0.87682,5.11927 0.27553,175.00002 -0.60108,180.24764 -1.67781,10.04318 -9.73436,17.52636 -20.4492,18.99386 -4.97901,0.68192 -57.39744,0.6566 -62.34002,-0.0302 z"
     id="path837"
     sodipodi:nodetypes="ssssccssss" />
</svg>
