<?xml version="1.0" encoding="UTF-8" standalone="no"?>
<svg
   xmlns:dc="http://purl.org/dc/elements/1.1/"
   xmlns:cc="http://creativecommons.org/ns#"
   xmlns:rdf="http://www.w3.org/1999/02/22-rdf-syntax-ns#"
   xmlns:svg="http://www.w3.org/2000/svg"
   xmlns="http://www.w3.org/2000/svg"
   xmlns:sodipodi="http://sodipodi.sourceforge.net/DTD/sodipodi-0.dtd"
   xmlns:inkscape="http://www.inkscape.org/namespaces/inkscape"
   aria-hidden="true"
   focusable="false"
   data-prefix="fas"
   data-icon="list-ul"
   class="svg-inline--fa fa-list-ul fa-w-16"
   role="img"
   viewBox="0 0 512 512"
   version="1.1"
   id="svg4"
   sodipodi:docname="list-ul-solid-primaryclr.svg"
   inkscape:version="1.0.2-2 (e86c870879, 2021-01-15)">
  <metadata
     id="metadata10">
    <rdf:RDF>
      <cc:Work
         rdf:about="">
        <dc:format>image/svg+xml</dc:format>
        <dc:type
           rdf:resource="http://purl.org/dc/dcmitype/StillImage" />
      </cc:Work>
    </rdf:RDF>
  </metadata>
  <defs
     id="defs8" />
  <sodipodi:namedview
     pagecolor="#ffffff"
     bordercolor="#666666"
     borderopacity="1"
     objecttolerance="10"
     gridtolerance="10"
     guidetolerance="10"
     inkscape:pageopacity="0"
     inkscape:pageshadow="2"
     inkscape:window-width="2400"
     inkscape:window-height="1284"
     id="namedview6"
     showgrid="false"
     inkscape:lockguides="true"
     inkscape:zoom="1.6445312"
     inkscape:cx="256"
     inkscape:cy="254.78385"
     inkscape:window-x="2391"
     inkscape:window-y="-9"
     inkscape:window-maximized="1"
     inkscape:current-layer="svg4" />
  <path
     fill="currentColor"
     d="M48 48a48 48 0 1 0 48 48 48 48 0 0 0-48-48zm0 160a48 48 0 1 0 48 48 48 48 0 0 0-48-48zm0 160a48 48 0 1 0 48 48 48 48 0 0 0-48-48zm448 16H176a16 16 0 0 0-16 16v32a16 16 0 0 0 16 16h320a16 16 0 0 0 16-16v-32a16 16 0 0 0-16-16zm0-320H176a16 16 0 0 0-16 16v32a16 16 0 0 0 16 16h320a16 16 0 0 0 16-16V80a16 16 0 0 0-16-16zm0 160H176a16 16 0 0 0-16 16v32a16 16 0 0 0 16 16h320a16 16 0 0 0 16-16v-32a16 16 0 0 0-16-16z"
     id="path2" />
  <path
     style="opacity:0;fill:#ff79da;fill-opacity:0.88;stroke:#aa5aab;stroke-width:0.393597"
     d="m 172.08157,127.12781 c -4.4701,-1.35974 -8.51453,-4.80605 -10.3942,-8.85703 -1.0257,-2.21055 -1.12981,-4.24155 -1.14195,-22.277352 l -0.0134,-19.845053 1.69819,-3.25072 c 1.89805,-3.633269 5.6445,-6.843192 9.11051,-7.805789 1.53419,-0.426081 54.85331,-0.630121 165.26193,-0.632418 l 162.99699,-0.0034 3.14551,1.567469 c 3.56458,1.776304 5.82961,4.183806 7.67876,8.161747 1.20441,2.590949 1.272,3.737938 1.272,21.586698 0,13.929248 -0.2066,19.433118 -0.79141,21.082638 -1.42996,4.03341 -4.04746,6.93318 -8.07491,8.94572 l -3.79348,1.89563 -162.71523,-0.0523 c -89.49338,-0.0288 -163.40109,-0.2609 -164.23936,-0.51589 z"
     id="path835" />
  <path
     style="opacity:0;fill:#9356dc;fill-opacity:0.87843138;stroke:#aa5aab;stroke-width:0.393597"
     d="m 172.08157,127.12781 c -4.4701,-1.35974 -8.51453,-4.80605 -10.3942,-8.85703 -1.0257,-2.21055 -1.12981,-4.24155 -1.14195,-22.277352 l -0.0134,-19.845053 1.69819,-3.25072 c 1.89805,-3.633269 5.6445,-6.843192 9.11051,-7.805789 1.53419,-0.426081 54.85331,-0.630121 165.26193,-0.632418 l 162.99699,-0.0034 3.14551,1.567469 c 3.56458,1.776304 5.82961,4.183806 7.67876,8.161747 1.20441,2.590949 1.272,3.737938 1.272,21.586698 0,13.929248 -0.2066,19.433118 -0.79141,21.082638 -1.42996,4.03341 -4.04746,6.93318 -8.07491,8.94572 l -3.79348,1.89563 -162.71523,-0.0523 c -89.49338,-0.0288 -163.40109,-0.2609 -164.23936,-0.51589 z"
     id="path837" />
  <path
     style="opacity:0;fill:#9356dc;fill-opacity:0.878431;stroke:#aa5aab;stroke-width:0.393597"
     d="M 37.918356,142.56434 C 16.176624,137.79389 0.60807601,118.46852 0.60807601,96.250797 c 0,-8.307883 1.25108899,-13.683317 4.99056799,-21.442493 2.7386339,-5.682488 3.7012693,-6.998083 8.920901,-12.191837 4.742198,-4.718686 6.892757,-6.356556 11.348196,-8.642809 7.498872,-3.847953 13.968637,-5.451011 22.110618,-5.478499 8.085435,-0.0273 13.030333,1.149821 21.05828,5.01286 12.595778,6.061073 21.703929,17.45074 25.287485,31.621772 1.823341,7.210338 1.408432,18.157709 -0.956455,25.236009 -6.743994,20.18532 -24.796318,33.26945 -45.633702,33.07482 -3.344418,-0.0312 -7.761444,-0.42556 -9.815611,-0.87628 z"
     id="path839" />
  <path
     style="opacity:0;fill:#9356dc;fill-opacity:0.87843138;stroke:#aa5aab;stroke-width:0.393597"
     d="m 171.14494,286.8136 c -4.73454,-1.82421 -8.31945,-5.31985 -9.97081,-9.72254 -0.40202,-1.07183 -0.64206,-9.04074 -0.64206,-21.31529 v -19.60349 l 1.56798,-3.14653 c 0.86239,-1.73059 2.61629,-3.97681 3.89757,-4.9916 4.98209,-3.94589 -8.58729,-3.6541 169.93251,-3.6541 178.81404,0 165.32083,-0.29168 170.13653,3.67783 1.21417,1.00082 2.97747,3.38748 3.91844,5.3037 l 1.71086,3.48403 V 256 275.15439 l -1.71086,3.48403 c -0.94097,1.91622 -2.70427,4.30288 -3.91844,5.3037 -4.81763,3.9711 8.72178,3.68249 -170.36501,3.63157 -122.98647,-0.035 -163.15628,-0.22051 -164.55671,-0.76009 z"
     id="path841" />
  <path
     style="opacity:0;fill:#9356dc;fill-opacity:0.878431;stroke:#aa5aab;stroke-width:0.393597"
     d="m 172.08157,127.12781 c -4.4701,-1.35974 -8.51453,-4.80605 -10.3942,-8.85703 -1.0257,-2.21055 -1.12981,-4.24155 -1.14195,-22.277352 l -0.0134,-19.845053 1.69819,-3.25072 c 1.89805,-3.633269 5.6445,-6.843192 9.11051,-7.805789 1.53419,-0.426081 54.85331,-0.630121 165.26193,-0.632418 l 162.99699,-0.0034 3.14551,1.567469 c 3.56458,1.776304 5.82961,4.183806 7.67876,8.161747 1.20441,2.590949 1.272,3.737938 1.272,21.586698 0,13.929248 -0.2066,19.433118 -0.79141,21.082638 -1.42996,4.03341 -4.04746,6.93318 -8.07491,8.94572 l -3.79348,1.89563 -162.71523,-0.0523 c -89.49338,-0.0288 -163.40109,-0.2609 -164.23936,-0.51589 z"
     id="path851" />
  <path
     style="opacity:1;fill:#9356dc;fill-opacity:0.878431;stroke:#aa5aab;stroke-width:0.393597"
     d="m 172.08157,127.12781 c -4.4701,-1.35974 -8.51453,-4.80605 -10.3942,-8.85703 -1.0257,-2.21055 -1.12981,-4.24155 -1.14195,-22.277352 l -0.0134,-19.845053 1.69819,-3.25072 c 1.89805,-3.633269 5.6445,-6.843192 9.11051,-7.805789 1.53419,-0.426081 54.85331,-0.630121 165.26193,-0.632418 l 162.99699,-0.0034 3.14551,1.567469 c 3.56458,1.776304 5.82961,4.183806 7.67876,8.161747 1.20441,2.590949 1.272,3.737938 1.272,21.586698 0,13.929248 -0.2066,19.433118 -0.79141,21.082638 -1.42996,4.03341 -4.04746,6.93318 -8.07491,8.94572 l -3.79348,1.89563 -162.71523,-0.0523 c -89.49338,-0.0288 -163.40109,-0.2609 -164.23936,-0.51589 z"
     id="path853" />
  <path
     style="opacity:1;fill:#9356dc;fill-opacity:0.878431;stroke:#aa5aab;stroke-width:0.393597"
     d="m 171.14494,286.8136 c -4.73454,-1.82421 -8.31945,-5.31985 -9.97081,-9.72254 -0.40202,-1.07183 -0.64206,-9.04074 -0.64206,-21.31529 v -19.60349 l 1.56798,-3.14653 c 0.86239,-1.73059 2.61629,-3.97681 3.89757,-4.9916 4.98209,-3.94589 -8.58729,-3.6541 169.93251,-3.6541 178.81404,0 165.32083,-0.29168 170.13653,3.67783 1.21417,1.00082 2.97747,3.38748 3.91844,5.3037 l 1.71086,3.48403 V 256 275.15439 l -1.71086,3.48403 c -0.94097,1.91622 -2.70427,4.30288 -3.91844,5.3037 -4.81763,3.9711 8.72178,3.68249 -170.36501,3.63157 -122.98647,-0.035 -163.15628,-0.22051 -164.55671,-0.76009 z"
     id="path855" />
  <path
     style="opacity:1;fill:#9356dc;fill-opacity:0.878431;stroke:#aa5aab;stroke-width:0.393597"
     d="M 37.918356,142.56434 C 16.176624,137.79389 0.60807601,118.46852 0.60807601,96.250797 c 0,-8.307883 1.25108899,-13.683317 4.99056799,-21.442493 2.7386339,-5.682488 3.7012693,-6.998083 8.920901,-12.191837 4.742198,-4.718686 6.892757,-6.356556 11.348196,-8.642809 7.498872,-3.847953 13.968637,-5.451011 22.110618,-5.478499 8.085435,-0.0273 13.030333,1.149821 21.05828,5.01286 12.595778,6.061073 21.703929,17.45074 25.287485,31.621772 1.823341,7.210338 1.408432,18.157709 -0.956455,25.236009 -6.743994,20.18532 -24.796318,33.26945 -45.633702,33.07482 -3.344418,-0.0312 -7.761444,-0.42556 -9.815611,-0.87628 z"
     id="path857" />
  <path
     style="opacity:1;fill:#9356dc;fill-opacity:0.878431;stroke:#aa5aab;stroke-width:0.393597"
     d="M 36.497097,302.17234 C 15.07729,296.56486 0.60807601,277.94977 0.60807601,256 c 0,-26.51952 20.91041099,-47.42993 47.42992899,-47.42993 26.184081,0 47.429928,20.96701 47.429928,46.80744 0,7.2055 -0.786728,11.68503 -3.115021,17.73645 -5.541305,14.40232 -17.787853,25.1928 -33.010752,29.0859 -6.44736,1.64884 -16.487779,1.63675 -22.845063,-0.0276 z"
     id="path859" />
  <path
     style="opacity:1;fill:#9356dc;fill-opacity:0.878431;stroke:#aa5aab;stroke-width:0.393597"
     d="m 44.389549,463.56395 c -5.919314,-0.65173 -11.790647,-2.38331 -17.61925,-5.1963 C 21.105694,455.63381 19.751004,454.644 14.5345,449.42749 9.3140735,444.20707 8.3307119,442.86056 5.598644,437.1917 1.859165,429.43252 0.60807601,424.05709 0.60807601,415.7492 c 0,-19.63069 11.99095999,-37.08955 30.31597099,-44.14012 5.935316,-2.28362 10.522247,-3.11502 17.185883,-3.11502 20.539869,0 38.193605,12.79961 45.096587,32.69668 1.557544,4.48946 1.885656,6.48376 2.127518,12.93153 0.240695,6.41673 0.08084,8.43461 -1.009911,12.74794 -3.750035,14.82938 -13.229916,26.22578 -27.057607,32.52777 -6.732179,3.0682 -16.572347,4.86012 -22.876968,4.16597 z"
     id="path861" />
  <path
     style="opacity:1;fill:#9356dc;fill-opacity:0.878431;stroke:#aa5aab;stroke-width:0.393597"
     d="m 170.64285,446.65118 c -3.49267,-1.24498 -6.55642,-4.00542 -8.43857,-7.60314 l -1.67221,-3.19642 0.0134,-19.84505 c 0.0121,-18.0358 0.11625,-20.0668 1.14195,-22.27735 1.39612,-3.00886 4.38405,-6.06419 7.62963,-7.80176 l 2.46447,-1.31938 163.26841,-0.16584 c 147.42701,-0.14974 163.51468,-0.0728 165.80661,0.79278 4.34435,1.64073 7.22277,4.16903 9.10088,7.99386 l 1.73859,3.54072 v 19.15439 c 0,18.15725 -0.0662,19.29684 -1.272,21.89074 -1.84915,3.97794 -4.11418,6.38544 -7.67876,8.16175 l -3.14551,1.56746 -163.30103,-0.0267 c -137.27484,-0.0224 -163.67633,-0.16047 -165.65581,-0.86607 z"
     id="path863" />
</svg>
