<?xml version="1.0" encoding="UTF-8" standalone="no"?>
<svg
   xmlns:dc="http://purl.org/dc/elements/1.1/"
   xmlns:cc="http://creativecommons.org/ns#"
   xmlns:rdf="http://www.w3.org/1999/02/22-rdf-syntax-ns#"
   xmlns:svg="http://www.w3.org/2000/svg"
   xmlns="http://www.w3.org/2000/svg"
   xmlns:sodipodi="http://sodipodi.sourceforge.net/DTD/sodipodi-0.dtd"
   xmlns:inkscape="http://www.inkscape.org/namespaces/inkscape"
   aria-hidden="true"
   focusable="false"
   data-prefix="fas"
   data-icon="mobile-alt"
   class="svg-inline--fa fa-mobile-alt fa-w-10"
   role="img"
   viewBox="0 0 320 512"
   version="1.1"
   id="svg903"
   sodipodi:docname="mobile-alt-solid-primaryclr.svg"
   inkscape:version="1.0.2-2 (e86c870879, 2021-01-15)">
  <metadata
     id="metadata909">
    <rdf:RDF>
      <cc:Work
         rdf:about="">
        <dc:format>image/svg+xml</dc:format>
        <dc:type
           rdf:resource="http://purl.org/dc/dcmitype/StillImage" />
      </cc:Work>
    </rdf:RDF>
  </metadata>
  <defs
     id="defs907" />
  <sodipodi:namedview
     pagecolor="#ffffff"
     bordercolor="#666666"
     borderopacity="1"
     objecttolerance="10"
     gridtolerance="10"
     guidetolerance="10"
     inkscape:pageopacity="0"
     inkscape:pageshadow="2"
     inkscape:window-width="2400"
     inkscape:window-height="1284"
     id="namedview905"
     showgrid="false"
     inkscape:zoom="2.109375"
     inkscape:cx="160"
     inkscape:cy="256"
     inkscape:window-x="2391"
     inkscape:window-y="-9"
     inkscape:window-maximized="1"
     inkscape:current-layer="svg903" />
  <path
     fill="currentColor"
     d="M272 0H48C21.5 0 0 21.5 0 48v416c0 26.5 21.5 48 48 48h224c26.5 0 48-21.5 48-48V48c0-26.5-21.5-48-48-48zM160 480c-17.7 0-32-14.3-32-32s14.3-32 32-32 32 14.3 32 32-14.3 32-32 32zm112-108c0 6.6-5.4 12-12 12H60c-6.6 0-12-5.4-12-12V60c0-6.6 5.4-12 12-12h200c6.6 0 12 5.4 12 12v312z"
     id="path901"
     style="fill:#9356dc;fill-opacity:1" />
  <path
     style="opacity:1;fill:#9356dc;fill-opacity:0;stroke:#aa5aab;stroke-width:0.30686"
     d="m 43.614815,511.4899 c -12.738977,-1.1695 -24.697122,-7.6307 -32.74969,-17.69515 -5.1208955,-6.40033 -8.5115675,-13.92251 -9.93225441,-22.03463 -1.05182303,-6.00591 -1.05182303,-425.514333 0,-431.520243 C 4.3762769,20.578022 18.817584,5.6625152 38.874074,1.0528209 41.862691,0.36593057 53.456384,0.27321652 155.4963,0.1202003 c 74.51855,-0.11174595 115.33782,-0.003992 119.246,0.31478893 3.60611,0.29413959 7.61329,0.96335757 10.19259,1.70221127 17.73963,5.0815965 30.92749,19.8035335 34.13224,38.1026765 1.05182,6.00591 1.05182,425.514333 0,431.520243 -3.44257,19.65705 -17.52617,34.25024 -37.75368,39.11974 -3.3074,0.79621 -10.01945,0.8485 -118.46901,0.92288 -63.229625,0.0431 -116.882959,-0.0974 -119.229625,-0.31284 z M 166.53851,479.5126 c 9.47925,-1.87927 17.90396,-8.32266 22.08868,-16.89385 4.77868,-9.78775 4.78667,-19.58861 0.0238,-29.2375 -8.86087,-17.95096 -32.42461,-23.16176 -48.56756,-10.74004 -5.7636,4.43499 -10.2415,11.71733 -11.6105,18.88198 -4.39593,23.00605 15.16635,42.52924 38.06554,37.98941 z m 99.92833,-97.18888 c 2.92406,-1.80376 5.23913,-5.46287 5.64548,-8.92303 0.15745,-1.34075 0.22326,-73.15773 0.14624,-159.59328 l -0.14004,-157.155558 -1.04685,-1.957077 c -1.41212,-2.639958 -4.89601,-5.61683 -7.3632,-6.291618 -1.51538,-0.414468 -27.64327,-0.518945 -104.65662,-0.418503 -97.655484,0.12737 -102.720046,0.175199 -104.347295,0.985472 -2.246381,1.118564 -4.518827,3.377641 -5.794442,5.760346 l -1.028632,1.92138 V 215.94074 c 0,154.63036 0.02589,159.33742 0.885595,160.94815 1.663118,3.11602 3.116989,4.64245 5.600568,5.88007 l 2.483044,1.23735 103.641502,-0.12167 103.6415,-0.12168 z"
     id="path911" />
  <path
     style="opacity:1;fill:#9356dc;fill-opacity:0;stroke:#aa5aab;stroke-width:0.30686"
     d="M 50.488889,511.04133 C 40.220958,510.75745 39.01617,510.63253 35.110702,509.44654 18.442921,504.38514 6.2083731,491.44647 1.7695604,474.18657 0.996256,471.17966 0.94841965,458.38719 0.95278426,255.76296 L 0.95742071,40.533333 1.9910151,36.89461 C 4.5499534,27.885978 9.1006801,20.049461 15.060844,14.387888 20.964052,8.7804179 26.405413,5.5196004 34.501921,2.7375288 L 38.874074,1.2351971 57.6,0.90201681 c 29.503929,-0.52494739 211.36941,-0.48877917 217.37845,0.0432308 6.58917,0.58337099 11.48071,1.82776009 16.58243,4.21850749 13.23594,6.2025709 22.42814,17.2833159 26.39178,31.8140229 l 1.09919,4.029629 -0.006,215.229633 -0.006,215.22963 -1.03257,3.6387 c -4.8665,17.1493 -16.39082,28.99215 -33.61506,34.54422 -3.07174,0.99015 -4.45687,1.07487 -23.17809,1.41805 -23.75564,0.43548 -194.794835,0.4141 -210.725923,-0.0265 z M 168.21601,479.47236 c 10.98473,-2.79496 18.82759,-10.25493 22.64816,-21.5425 3.43634,-10.1524 1.34881,-21.6961 -5.50188,-30.4246 -8.26396,-10.52913 -23.19467,-14.69269 -36.31998,-10.12816 -4.69975,1.63441 -8.17266,3.81433 -11.82009,7.41936 -10.67383,10.54973 -12.78496,27.15566 -5.10763,40.17588 2.02986,3.4425 7.49119,8.89517 10.95718,10.93981 7.50306,4.42615 16.65048,5.72137 25.14424,3.56021 z m 97.57572,-96.22133 c 2.04281,-1.05638 4.37502,-3.6054 5.6497,-6.17492 l 1.15116,-2.32055 -0.0909,-159.13513 c -0.0901,-157.729647 -0.0992,-159.151429 -1.03234,-160.980487 -1.05517,-2.068314 -3.95844,-4.875316 -6.28905,-6.080521 -1.40784,-0.728022 -5.67736,-0.815664 -48.73943,-1.00051 -25.95804,-0.111422 -72.79643,-0.02842 -104.08531,0.184457 -51.592296,0.35101 -57.021307,0.460099 -58.311116,1.171656 -1.825806,1.007251 -4.657185,3.98875 -5.636655,5.935507 -0.697358,1.38605 -0.760903,15.196231 -0.735085,159.762958 0.01555,87.03517 0.196873,159.27107 0.402953,160.52422 0.501049,3.04681 2.600467,5.91067 5.750211,7.84398 l 2.588947,1.5891 104.021465,-0.31497 c 89.6788,-0.27153 104.20539,-0.41007 105.35545,-1.00479 z"
     id="path913" />
</svg>
