<?xml version="1.0" encoding="UTF-8" standalone="no"?>
<svg
   xmlns:dc="http://purl.org/dc/elements/1.1/"
   xmlns:cc="http://creativecommons.org/ns#"
   xmlns:rdf="http://www.w3.org/1999/02/22-rdf-syntax-ns#"
   xmlns:svg="http://www.w3.org/2000/svg"
   xmlns="http://www.w3.org/2000/svg"
   xmlns:sodipodi="http://sodipodi.sourceforge.net/DTD/sodipodi-0.dtd"
   xmlns:inkscape="http://www.inkscape.org/namespaces/inkscape"
   aria-hidden="true"
   focusable="false"
   data-prefix="fas"
   data-icon="store"
   class="svg-inline--fa fa-store fa-w-20"
   role="img"
   viewBox="0 0 616 512"
   version="1.1"
   id="svg935"
   sodipodi:docname="store-solid-primaryclr.svg"
   inkscape:version="1.0.2-2 (e86c870879, 2021-01-15)">
  <metadata
     id="metadata941">
    <rdf:RDF>
      <cc:Work
         rdf:about="">
        <dc:format>image/svg+xml</dc:format>
        <dc:type
           rdf:resource="http://purl.org/dc/dcmitype/StillImage" />
      </cc:Work>
    </rdf:RDF>
  </metadata>
  <defs
     id="defs939" />
  <sodipodi:namedview
     pagecolor="#ffffff"
     bordercolor="#666666"
     borderopacity="1"
     objecttolerance="10"
     gridtolerance="10"
     guidetolerance="10"
     inkscape:pageopacity="0"
     inkscape:pageshadow="2"
     inkscape:window-width="2400"
     inkscape:window-height="1284"
     id="namedview937"
     showgrid="false"
     inkscape:zoom="2.109375"
     inkscape:cx="308"
     inkscape:cy="256"
     inkscape:window-x="2391"
     inkscape:window-y="-9"
     inkscape:window-maximized="1"
     inkscape:current-layer="svg935" />
  <path
     fill="currentColor"
     d="M602 118.6L537.1 15C531.3 5.7 521 0 510 0H106C95 0 84.7 5.7 78.9 15L14 118.6c-33.5 53.5-3.8 127.9 58.8 136.4 4.5.6 9.1.9 13.7.9 29.6 0 55.8-13 73.8-33.1 18 20.1 44.3 33.1 73.8 33.1 29.6 0 55.8-13 73.8-33.1 18 20.1 44.3 33.1 73.8 33.1 29.6 0 55.8-13 73.8-33.1 18.1 20.1 44.3 33.1 73.8 33.1 4.7 0 9.2-.3 13.7-.9 62.8-8.4 92.6-82.8 59-136.4zM529.5 288c-10 0-19.9-1.5-29.5-3.8V384H116v-99.8c-9.6 2.2-19.5 3.8-29.5 3.8-6 0-12.1-.4-18-1.2-5.6-.8-11.1-2.1-16.4-3.6V480c0 17.7 14.3 32 32 32h448c17.7 0 32-14.3 32-32V283.2c-5.4 1.6-10.8 2.9-16.4 3.6-6.1.8-12.1 1.2-18.2 1.2z"
     id="path933" />
  <path
     style="opacity:1;fill:#9356dc;fill-opacity:1;stroke:#aa5aab;stroke-width:0.30686"
     d="M 73.333333,254.81246 C 55.677459,252.39845 40.451888,245.05305 27.648622,232.7724 5.703781,211.72332 -4.0038875,179.57064 2.2553419,148.66754 3.6420267,141.82119 6.6478042,133.11671 9.7590921,126.93729 12.363441,121.76472 77.822455,16.778864 81.316527,12.170539 85.053478,7.2418745 92.043871,2.7985755 98.785745,1.0665858 101.83669,0.28279742 113.37757,0.23703704 308,0.23703704 c 194.62244,0 206.16329,0.0457605 209.21425,0.82954876 6.74185,1.7319881 13.73226,6.1752754 17.46925,11.1039532 1.72141,2.2704 65.19865,103.384591 69.09904,110.069281 9.54733,16.36286 13.68297,37.40637 11.16615,56.81738 -4.24054,32.7053 -24.7899,59.84585 -53.78683,71.03894 -8.96867,3.46199 -17.05055,4.9526 -28.68779,5.29114 -17.57079,0.51114 -31.78216,-2.59395 -47.20948,-10.31501 -9.34148,-4.67522 -20.47953,-12.78882 -26.89143,-19.58928 -1.38365,-1.46749 -2.63839,-2.66818 -2.78832,-2.66818 -0.14993,0 -2.50216,2.14746 -5.22718,4.77212 -16.05499,15.46373 -36.05089,24.96864 -57.73544,27.44414 -5.53011,0.63131 -16.94295,0.63043 -22.05688,-0.002 -21.94967,-2.71306 -41.50189,-12.04682 -57.48596,-27.44224 -2.72502,-2.62466 -5.10505,-4.77212 -5.28894,-4.77212 -0.18389,0 -1.42075,1.1887 -2.74857,2.64155 -6.01192,6.578 -17.31531,14.82477 -26.90854,19.63204 -14.17602,7.10375 -28.25813,10.43753 -44.08889,10.43753 -26.18913,0 -50.90232,-10.26299 -69.50604,-28.86473 -2.11574,-2.11551 -4.01705,-3.84639 -4.22514,-3.84639 -0.20809,0 -2.63703,2.19555 -5.39765,4.87899 -15.43205,15.00061 -34.6505,24.3458 -55.757381,27.11268 -6.617529,0.86748 -19.502103,0.87046 -25.824896,0.006 z"
     id="path943" />
  <path
     style="opacity:1;fill:#9356dc;fill-opacity:1;stroke:#aa5aab;stroke-width:0.30686"
     d="m 80.681481,511.52221 c -12.073534,-1.2876 -22.582903,-9.81586 -26.868702,-21.80369 l -1.101668,-3.08148 -0.123858,-101.50586 -0.123857,-101.50586 5.338672,1.29948 c 9.496812,2.3116 15.709995,3.00136 27.383117,3.03994 6.328243,0.0209 12.402036,-0.21148 14.933335,-0.5714 4.13478,-0.5879 13.36598,-2.28929 15.05185,-2.77417 0.78638,-0.22618 0.82963,2.35842 0.82963,49.5711 V 384 h 192 192 v -49.80973 c 0,-47.2196 0.0431,-49.79637 0.82963,-49.55294 1.61928,0.50117 7.54264,1.63805 12.91852,2.47946 7.44992,1.16603 25.29844,1.16689 33.42222,0.002 5.19742,-0.74552 13.9574,-2.60864 16.00853,-3.40478 0.80019,-0.31058 0.83191,4.24975 0.69931,100.58793 -0.13217,96.0324 -0.18067,101.05083 -1.00238,103.7577 -3.44349,11.34332 -11.72765,19.47767 -23.29064,22.86936 -2.6964,0.79092 -14.62629,0.83729 -229.21482,0.89092 -124.5037,0.0311 -227.863703,-0.10268 -229.688889,-0.29733 z"
     id="path945" />
</svg>
