<?xml version="1.0" encoding="UTF-8" standalone="no"?>
<svg
   xmlns:dc="http://purl.org/dc/elements/1.1/"
   xmlns:cc="http://creativecommons.org/ns#"
   xmlns:rdf="http://www.w3.org/1999/02/22-rdf-syntax-ns#"
   xmlns:svg="http://www.w3.org/2000/svg"
   xmlns="http://www.w3.org/2000/svg"
   xmlns:sodipodi="http://sodipodi.sourceforge.net/DTD/sodipodi-0.dtd"
   xmlns:inkscape="http://www.inkscape.org/namespaces/inkscape"
   aria-hidden="true"
   focusable="false"
   data-prefix="fas"
   data-icon="utensils"
   class="svg-inline--fa fa-utensils fa-w-13"
   role="img"
   viewBox="0 0 416 512"
   version="1.1"
   id="svg4"
   sodipodi:docname="utensils-solid.svg"
   inkscape:version="1.0.2-2 (e86c870879, 2021-01-15)">
  <metadata
     id="metadata10">
    <rdf:RDF>
      <cc:Work
         rdf:about="">
        <dc:format>image/svg+xml</dc:format>
        <dc:type
           rdf:resource="http://purl.org/dc/dcmitype/StillImage" />
      </cc:Work>
    </rdf:RDF>
  </metadata>
  <defs
     id="defs8" />
  <sodipodi:namedview
     pagecolor="#ffffff"
     bordercolor="#666666"
     borderopacity="1"
     objecttolerance="10"
     gridtolerance="10"
     guidetolerance="10"
     inkscape:pageopacity="0"
     inkscape:pageshadow="2"
     inkscape:window-width="2400"
     inkscape:window-height="1284"
     id="namedview6"
     showgrid="false"
     inkscape:zoom="1.6445312"
     inkscape:cx="208"
     inkscape:cy="254.78385"
     inkscape:window-x="2391"
     inkscape:window-y="-9"
     inkscape:window-maximized="1"
     inkscape:current-layer="svg4" />
  <path
     fill="currentColor"
     d="M207.9 15.2c.8 4.7 16.1 94.5 16.1 128.8 0 52.3-27.8 89.6-68.9 104.6L168 486.7c.7 13.7-10.2 25.3-24 25.3H80c-13.7 0-24.7-11.5-24-25.3l12.9-238.1C27.7 233.6 0 196.2 0 144 0 109.6 15.3 19.9 16.1 15.2 19.3-5.1 61.4-5.4 64 16.3v141.2c1.3 3.4 15.1 3.2 16 0 1.4-25.3 7.9-139.2 8-141.8 3.3-20.8 44.7-20.8 47.9 0 .2 2.7 6.6 116.5 8 141.8.9 3.2 14.8 3.4 16 0V16.3c2.6-21.6 44.8-21.4 48-1.1zm119.2 285.7l-15 185.1c-1.2 14 9.9 26 23.9 26h56c13.3 0 24-10.7 24-24V24c0-13.2-10.7-24-24-24-82.5 0-221.4 178.5-64.9 300.9z"
     id="path2" />
  <path
     style="fill:#ffffff;fill-opacity:1;stroke-width:0.393597"
     d="m 76.538083,511.34395 c -7.400881,-1.08546 -14.664452,-6.65208 -18.013581,-13.80517 -1.359462,-2.90355 -1.658667,-4.47993 -1.814106,-9.55778 -0.147,-4.80212 11.071429,-219.80299 12.294799,-235.62946 l 0.305522,-3.95249 -4.992651,-2.04726 C 42.501805,237.40594 23.904788,220.36247 13.19215,199.49682 1.958752,177.61684 -1.5131639,154.51959 1.5309018,121.91924 3.5871925,99.897445 8.9423062,60.609374 14.231683,28.739306 17.23104,10.667288 17.955192,8.7888278 23.352988,5.0785306 c 5.944854,-4.08633079 16.546031,-5.75030634 24.418983,-3.832838 4.487857,1.0930235 9.840389,4.1123841 12.22144,6.8941095 4.075958,4.7618399 3.892575,1.0179594 3.892575,79.4684509 0,67.010997 0.05935,70.994887 1.064133,71.425147 3.640782,1.55904 12.812435,1.26037 14.546504,-0.47369 0.578949,-0.57895 1.817685,-19.15351 4.775901,-71.6137 2.196815,-38.957597 4.254052,-71.815952 4.571631,-73.018565 0.839109,-3.177494 3.858358,-7.0299044 7.142838,-9.1138983 10.725677,-6.8054103 28.397477,-5.17441217 35.845397,3.3083093 3.72158,4.238643 3.4849,1.8516529 7.78637,78.528975 2.8939,51.586289 4.20048,71.357359 4.7527,71.917729 1.69821,1.72329 10.89671,2.02018 14.51672,0.46856 0.99078,-0.42468 1.06422,-4.80848 1.21615,-72.59965 l 0.1617,-72.147684 1.81163,-3.271001 c 3.63551,-6.5641045 10.19043,-9.8475121 20.51138,-10.27429498 5.38277,-0.22258361 7.22944,-0.0511258 10.64133,0.98801198 6.86557,2.0910055 11.71342,5.8933184 13.49786,10.586783 1.79494,4.721034 11.06783,66.92141 14.30657,95.965095 2.43544,21.84012 3.0771,34.82349 2.24167,45.35823 -2.3456,29.57803 -12.04465,51.8099 -30.73847,70.45782 -10.37587,10.35038 -21.29443,17.71834 -33.3361,22.49555 l -4.10451,1.62836 0.002,3.12773 c 0.001,1.72026 2.85989,55.93914 6.35328,120.48641 4.76787,88.09572 6.20615,118.11678 5.76823,120.39905 -1.92629,10.03894 -10.03781,17.63465 -20.43792,19.13827 -5.00169,0.72313 -65.283285,0.6958 -70.24454,-0.0319 z"
     id="path835" />
  <path
     style="fill:#ffffff;fill-opacity:1;stroke-width:0.393597"
     d="m 332.53808,511.34395 c -7.40482,-1.08603 -14.67728,-6.66189 -18.00577,-13.80517 -1.26933,-2.72412 -1.66155,-4.59622 -1.81133,-8.64567 -0.11099,-3.00081 2.88172,-42.89214 7.13537,-95.11081 4.0296,-49.46819 7.32655,-90.68846 7.32655,-91.6006 0,-1.36944 -1.1897,-2.65023 -6.82728,-7.35 -36.06546,-30.06595 -57.10477,-65.77628 -62.82404,-106.63218 -1.1029,-7.87861 -1.24262,-25.772 -0.27063,-34.66033 2.97041,-27.16301 13.76792,-55.80278 30.49045,-80.874107 12.32103,-18.472376 24.14331,-31.593893 40.34361,-44.777288 20.78199,-16.911856 44.16453,-27.19484301 62.1576,-27.33517449 6.28671,-0.0490313 7.85918,0.27205947 12.33171,2.51808479 6.72917,3.3792652 11.49025,9.9804837 12.73603,17.6584507 0.87682,5.404006 0.88361,465.056764 0.007,470.596264 -1.67781,10.60179 -9.73436,18.50119 -20.4492,20.05031 -4.97901,0.71985 -57.39744,0.69313 -62.34002,-0.0318 z"
     id="path837" />
</svg>
