<?xml version="1.0" encoding="UTF-8" standalone="no"?>
<svg
   xmlns:dc="http://purl.org/dc/elements/1.1/"
   xmlns:cc="http://creativecommons.org/ns#"
   xmlns:rdf="http://www.w3.org/1999/02/22-rdf-syntax-ns#"
   xmlns:svg="http://www.w3.org/2000/svg"
   xmlns="http://www.w3.org/2000/svg"
   xmlns:sodipodi="http://sodipodi.sourceforge.net/DTD/sodipodi-0.dtd"
   xmlns:inkscape="http://www.inkscape.org/namespaces/inkscape"
   aria-hidden="true"
   focusable="false"
   data-prefix="fas"
   data-icon="wine-glass-alt"
   class="svg-inline--fa fa-wine-glass-alt fa-w-9"
   role="img"
   viewBox="0 0 288 512"
   version="1.1"
   id="svg845"
   sodipodi:docname="wine-glass-alt-solid.svg"
   inkscape:version="1.0.2-2 (e86c870879, 2021-01-15)">
  <metadata
     id="metadata851">
    <rdf:RDF>
      <cc:Work
         rdf:about="">
        <dc:format>image/svg+xml</dc:format>
        <dc:type
           rdf:resource="http://purl.org/dc/dcmitype/StillImage" />
      </cc:Work>
    </rdf:RDF>
  </metadata>
  <defs
     id="defs849" />
  <sodipodi:namedview
     pagecolor="#ffffff"
     bordercolor="#666666"
     borderopacity="1"
     objecttolerance="10"
     gridtolerance="10"
     guidetolerance="10"
     inkscape:pageopacity="0"
     inkscape:pageshadow="2"
     inkscape:window-width="2400"
     inkscape:window-height="1284"
     id="namedview847"
     showgrid="false"
     inkscape:zoom="2.0192726"
     inkscape:cx="144"
     inkscape:cy="256"
     inkscape:window-x="2391"
     inkscape:window-y="-9"
     inkscape:window-maximized="1"
     inkscape:current-layer="svg845" />
  <path
     fill="currentColor"
     d="M 216,464 H 176 V 346.81 C 244.47,330.92 294.05,266.9 287.4,192.65 L 271.45,14.55 C 270.71,6.31 263.9,0 255.74,0 H 32.26 C 24.11,0 17.29,6.31 16.56,14.55 L 0.6,192.66 C -6.05,266.91 43.53,330.93 112,346.82 V 464 H 72 c -22.09,0 -40,17.91 -40,40 0,4.42 3.58,8 8,8 h 208 c 4.42,0 8,-3.58 8,-8 0,-22.09 -17.91,-40 -40,-40 z M 61.75,48 h 164.5 l 6.50639,80.08795 -177.582592,0.0925 z"
     id="path843"
     sodipodi:nodetypes="sccccssccccssssssccccc"
     style="fill:#000000;fill-opacity:0.99588478" />
  <path
     style="fill:#99e2f0;stroke:none;stroke-width:0;stroke-miterlimit:4;stroke-dasharray:none;fill-opacity:1"
     id="path853"
     sodipodi:type="arc"
     sodipodi:cx="139.63104"
     sodipodi:cy="231.49574"
     sodipodi:rx="88.746498"
     sodipodi:ry="85.49279"
     sodipodi:start="0.012217305"
     sodipodi:end="3.1520646"
     sodipodi:arc-type="chord"
     d="M 228.37092,232.54021 A 88.746498,85.49279 0 0 1 138.62427,316.98303 88.746498,85.49279 0 0 1 50.88941,230.60048 Z"
     sodipodi:open="true"
     transform="matrix(0.99991352,-0.01315115,0.01875738,0.99982406,0,0)" />
  <path
     sodipodi:type="star"
     style="fill:#99e2f0;fill-opacity:1;stroke:none;stroke-width:0;stroke-miterlimit:4;stroke-dasharray:none"
     id="path857"
     sodipodi:sides="4"
     sodipodi:cx="233.42"
     sodipodi:cy="128"
     sodipodi:r1="80.437576"
     sodipodi:r2="37.242847"
     sodipodi:arg1="3.1162226"
     sodipodi:arg2="3.9016208"
     inkscape:flatsided="true"
     inkscape:rounded="-2.5326963e-16"
     inkscape:randomized="0"
     d="m 153.00831,130.04049 78.3712,-82.452181 82.45218,78.371201 -78.37121,82.45218 z"
     inkscape:transform-center-x="7.7275643"
     inkscape:transform-center-y="-3.9554282"
     transform="matrix(1.0765187,0.68324546,-1.1305284,0.65060423,37.471958,-60.962205)" />
</svg>
